<svg xmlns="http://www.w3.org/2000/svg" width="58" height="58" viewBox="0 0 58 58" fill="none">
  <circle cx="29" cy="28" r="20" fill="#EA4335"/>
  <path fill-rule="evenodd" clip-rule="evenodd" d="M22.5882 24.4141C21.8072 23.633 21.8073 22.3666 22.5884 21.5857C23.3695 20.8047 24.6359 20.8048 25.4168 21.5859L28.5402 24.7099L31.6636 21.5859C32.4446 20.8048 33.7109 20.8047 34.492 21.5857C35.2732 22.3666 35.2733 23.633 34.4923 24.4141L31.3684 27.5386L34.4948 30.6655C35.2758 31.4467 35.2757 32.713 34.4945 33.494C33.7134 34.275 32.4471 34.2748 31.6661 33.4937L28.5402 30.3673L25.4143 33.4937C24.6334 34.2748 23.367 34.275 22.5859 33.494C21.8048 32.713 21.8047 31.4467 22.5857 30.6655L25.7121 27.5386L22.5882 24.4141Z" fill="white"/>
</svg>